<?xml version="1.0" encoding="UTF-8"?>
<svg id="Layer_2" data-name="Layer 2" xmlns="http://www.w3.org/2000/svg" viewBox="0 0 1920 1080">
  <defs>
    <style>
      .cls-1 {
        fill: #ccc;
      }

      .cls-2 {
        fill: #f2f2f2;
      }
    </style>
  </defs>
  <g id="Layer_1-2" data-name="Layer 1">
    <g>
      <rect class="cls-2" width="1920" height="1080"/>
      <g>
        <path class="cls-1" d="m868.42,425.42c0,37.97-30.78,68.75-68.75,68.75s-68.75-30.78-68.75-68.75,30.78-68.75,68.75-68.75,68.75,30.78,68.75,68.75Z"/>
        <path class="cls-1" d="m662.08,265c-37.97,0-68.75,30.78-68.75,68.75v412.5c0,37.97,30.78,68.75,68.75,68.75h595.83c37.97,0,68.75-30.78,68.75-68.75v-412.5c0-37.97-30.78-68.75-68.75-68.75h-595.83Zm595.83,45.83c12.66,0,22.92,10.26,22.92,22.92v275l-173.02-89.24c-8.81-4.42-19.47-2.7-26.45,4.26l-170.04,170.04-121.92-81.22c-9.08-6.04-21.15-4.85-28.88,2.84l-121.28,107.89v24.75c-.05-.61-.09-1.22-.09-1.83v-412.5c0-12.66,10.26-22.92,22.92-22.92h595.83Z"/>
      </g>
    </g>
  </g>
</svg>